<svg id="Layer_1" data-name="Layer 1" xmlns="http://www.w3.org/2000/svg" viewBox="0 0 207.98 424.48"><defs><style>.cls-1{font-size:7.75px;}.cls-1,.cls-19,.cls-24,.cls-8{font-family:MyriadPro-Regular, Myriad Pro;}.cls-2{letter-spacing:-0.01em;}.cls-3{letter-spacing:-0.04em;}.cls-4{letter-spacing:-0.07em;}.cls-5{letter-spacing:0em;}.cls-6{letter-spacing:0.01em;}.cls-16,.cls-17,.cls-18,.cls-7{fill:none;stroke-miterlimit:10;}.cls-7{stroke:#000;}.cls-8{font-size:5.23px;}.cls-9{letter-spacing:0.02em;}.cls-10{letter-spacing:0em;}.cls-11{letter-spacing:0em;}.cls-12{letter-spacing:0em;}.cls-13{letter-spacing:0.03em;}.cls-14{letter-spacing:0em;}.cls-15{letter-spacing:0em;}.cls-16,.cls-17,.cls-18{stroke:#666;stroke-width:0.5px;}.cls-16{stroke-dasharray:6.03 2.01;}.cls-18{stroke-dasharray:5.99 2;}.cls-19{font-size:14.1px;fill:#666;}.cls-20{letter-spacing:-0.02em;}.cls-21{letter-spacing:-0.01em;}.cls-22{letter-spacing:-0.02em;}.cls-23{letter-spacing:0em;}.cls-24{font-size:7.05px;}.cls-25{letter-spacing:-0.01em;}.cls-26{letter-spacing:0em;}.cls-27{letter-spacing:-0.01em;}.cls-28{letter-spacing:-0.01em;}</style></defs><title>Braided Architecture</title><text class="cls-1" transform="translate(77.84 6.48)">128 bit <tspan class="cls-2" x="23.99" y="0">P</tspan><tspan x="28.07" y="0">lain</tspan><tspan class="cls-3" x="39.74" y="0"> </tspan><tspan class="cls-4" x="41.07" y="0">T</tspan><tspan class="cls-5" x="44.37" y="0">e</tspan><tspan class="cls-6" x="48.22" y="0">x</tspan><tspan x="51.91" y="0">t</tspan></text><rect class="cls-7" x="70.86" y="10.88" width="68.42" height="11.62"/><line class="cls-7" x1="80.87" y1="10.56" x2="80.87" y2="22.18"/><line class="cls-7" x1="91.19" y1="10.88" x2="91.19" y2="22.5"/><line class="cls-7" x1="129.28" y1="10.88" x2="129.28" y2="22.5"/><text class="cls-1" transform="translate(105.33 17.23)">. . .</text><polyline class="cls-7" points="49.24 52.84 49.24 38.63 105.07 38.63 105.07 24.43"/><path d="M162.93,59.14l-1.78-3.68,1.78.89Zm0,0,1.77-3.68-1.77.89Z" transform="translate(-113.69 -3.52)"/><text class="cls-1" transform="translate(40.38 64.58)">64 bit</text><rect class="cls-7" x="23.74" y="68.87" width="50.35" height="7.85"/><line class="cls-7" x1="31.11" y1="68.65" x2="31.11" y2="76.5"/><line class="cls-7" x1="38.7" y1="68.87" x2="38.7" y2="76.72"/><line class="cls-7" x1="66.73" y1="68.87" x2="66.73" y2="76.72"/><text class="cls-8" transform="translate(49.1 73.16) scale(1.09 1)">. . .</text><polyline class="cls-7" points="160.74 52.84 160.74 38.63 104.91 38.63 104.91 24.43"/><path d="M274.43,56.35l1.78-.89-1.78,3.68Zm0,0-1.77-.89,1.77,3.68Z" transform="translate(-113.69 -3.52)"/><text class="cls-1" transform="translate(151.4 64.58)">64 bit</text><rect class="cls-7" x="134.76" y="68.87" width="50.35" height="7.85"/><line class="cls-7" x1="142.13" y1="68.65" x2="142.13" y2="76.5"/><line class="cls-7" x1="149.72" y1="68.87" x2="149.72" y2="76.72"/><line class="cls-7" x1="177.75" y1="68.87" x2="177.75" y2="76.72"/><text class="cls-8" transform="translate(160.13 73.16) scale(1.09 1)">. . .</text><line class="cls-7" x1="49.56" y1="80.59" x2="49.56" y2="92.21"/><path d="M163.25,98.51l-1.78-3.67,1.78.89Zm0,0L165,94.84l-1.77.89Z" transform="translate(-113.69 -3.52)"/><text class="cls-1" transform="translate(32.24 103.3)">Enc<tspan class="cls-9" x="11.58" y="0">r</tspan><tspan x="14.31" y="0">yption</tspan></text><line class="cls-7" x1="160.58" y1="80.59" x2="160.58" y2="92.21"/><path d="M274.27,98.51l-1.78-3.67,1.78.89Zm0,0,1.78-3.67-1.78.89Z" transform="translate(-113.69 -3.52)"/><text class="cls-1" transform="translate(143.26 103.3)">Enc<tspan class="cls-9" x="11.58" y="0">r</tspan><tspan x="14.31" y="0">yption</tspan></text><line class="cls-7" x1="49.56" y1="107.7" x2="49.56" y2="119.32"/><path d="M163.25,125.62,161.47,122l1.78.89Zm0,0L165,122l-1.77.89Z" transform="translate(-113.69 -3.52)"/><text class="cls-1" transform="translate(38.17 130.41)"><tspan class="cls-10">O</tspan><tspan x="5.36" y="0">utput</tspan></text><line class="cls-7" x1="160.58" y1="107.7" x2="160.58" y2="119.32"/><path d="M274.27,125.62,272.49,122l1.78.89Zm0,0,1.78-3.67-1.78.89Z" transform="translate(-113.69 -3.52)"/><text class="cls-1" transform="translate(149.19 130.41)"><tspan class="cls-11">O</tspan><tspan x="5.36" y="0">utput</tspan></text><polyline class="cls-7" points="49.56 135.46 49.56 147.72 160.58 156.75 160.58 169.66"/><path d="M274.27,176l-1.78-3.68,1.78.89Zm0,0,1.78-3.68-1.78.89Z" transform="translate(-113.69 -3.52)"/><polyline class="cls-7" points="160.26 135.46 160.26 147.72 49.24 156.75 49.24 169.66"/><path d="M162.93,172.23l1.77-.88L162.93,175Zm0,0-1.78-.88,1.78,3.67Z" transform="translate(-113.69 -3.52)"/><text class="cls-1" transform="translate(39.73 180.11)">64 bit</text><rect class="cls-7" x="23.1" y="184.41" width="50.35" height="7.85"/><line class="cls-7" x1="30.46" y1="184.19" x2="30.46" y2="192.04"/><line class="cls-7" x1="38.06" y1="184.41" x2="38.06" y2="192.26"/><line class="cls-7" x1="66.08" y1="184.41" x2="66.08" y2="192.26"/><text class="cls-8" transform="translate(48.46 188.69) scale(1.09 1)">. . .</text><text class="cls-1" transform="translate(150.75 180.11)">64 bit</text><rect class="cls-7" x="134.12" y="184.41" width="50.35" height="7.85"/><line class="cls-7" x1="141.48" y1="184.19" x2="141.48" y2="192.04"/><line class="cls-7" x1="149.08" y1="184.41" x2="149.08" y2="192.26"/><line class="cls-7" x1="177.1" y1="184.41" x2="177.1" y2="192.26"/><text class="cls-8" transform="translate(159.48 188.69) scale(1.09 1)">. . .</text><line class="cls-7" x1="48.92" y1="196.13" x2="48.92" y2="207.75"/><path d="M162.6,214.05l-1.77-3.67,1.77.88Zm0,0,1.78-3.67-1.78.88Z" transform="translate(-113.69 -3.52)"/><text class="cls-1" transform="translate(31.12 218.84)"><tspan class="cls-12">D</tspan><tspan x="5.19" y="0">ec</tspan><tspan class="cls-13" x="12.54" y="0">r</tspan><tspan x="15.27" y="0">yption</tspan></text><line class="cls-7" x1="159.94" y1="196.13" x2="159.94" y2="207.75"/><path d="M273.62,214.05l-1.77-3.67,1.77.88Zm0,0,1.78-3.67-1.78.88Z" transform="translate(-113.69 -3.52)"/><text class="cls-1" transform="translate(142.14 218.84)"><tspan class="cls-14">D</tspan><tspan x="5.19" y="0">ec</tspan><tspan class="cls-9" x="12.54" y="0">r</tspan><tspan x="15.27" y="0">yption</tspan></text><line class="cls-7" x1="48.92" y1="223.24" x2="48.92" y2="234.86"/><path d="M162.6,241.16l-1.77-3.67,1.77.88Zm0,0,1.78-3.67-1.78.88Z" transform="translate(-113.69 -3.52)"/><text class="cls-1" transform="translate(37.53 245.95)"><tspan class="cls-10">O</tspan><tspan x="5.36" y="0">utput</tspan></text><line class="cls-7" x1="159.94" y1="223.24" x2="159.94" y2="234.86"/><path d="M273.62,241.16l-1.77-3.67,1.77.88Zm0,0,1.78-3.67-1.78.88Z" transform="translate(-113.69 -3.52)"/><text class="cls-1" transform="translate(148.55 245.95)"><tspan class="cls-11">O</tspan><tspan x="5.36" y="0">utput</tspan></text><polyline class="cls-7" points="48.92 250.99 48.92 263.26 159.94 272.29 159.94 285.2"/><path d="M273.62,291.5l-1.77-3.67,1.77.89Zm0,0,1.78-3.67-1.78.89Z" transform="translate(-113.69 -3.52)"/><polyline class="cls-7" points="159.61 250.99 159.61 263.26 48.59 272.29 48.59 285.2"/><path d="M162.44,288.36l1.78-.89-1.78,3.67Zm0,0-1.77-.89,1.77,3.67Z" transform="translate(-113.69 -3.52)"/><text class="cls-1" transform="translate(39.73 297.59)">64 bit</text><rect class="cls-7" x="23.1" y="301.88" width="50.35" height="7.85"/><line class="cls-7" x1="30.46" y1="301.66" x2="30.46" y2="309.51"/><line class="cls-7" x1="38.06" y1="301.88" x2="38.06" y2="309.73"/><line class="cls-7" x1="66.08" y1="301.88" x2="66.08" y2="309.73"/><text class="cls-8" transform="translate(48.46 306.17) scale(1.09 1)">. . .</text><text class="cls-1" transform="translate(150.75 297.59)">64 bit</text><rect class="cls-7" x="134.12" y="301.88" width="50.35" height="7.85"/><line class="cls-7" x1="141.48" y1="301.66" x2="141.48" y2="309.51"/><line class="cls-7" x1="149.08" y1="301.88" x2="149.08" y2="309.73"/><line class="cls-7" x1="177.1" y1="301.88" x2="177.1" y2="309.73"/><text class="cls-8" transform="translate(159.48 306.17) scale(1.09 1)">. . .</text><line class="cls-7" x1="48.92" y1="313.6" x2="48.92" y2="325.22"/><path d="M162.6,331.52l-1.77-3.67,1.77.89Zm0,0,1.78-3.67-1.78.89Z" transform="translate(-113.69 -3.52)"/><text class="cls-1" transform="translate(31.6 336.31)">Enc<tspan class="cls-9" x="11.58" y="0">r</tspan><tspan x="14.31" y="0">yption</tspan></text><line class="cls-7" x1="159.94" y1="313.6" x2="159.94" y2="325.22"/><path d="M273.62,331.52l-1.77-3.67,1.77.89Zm0,0,1.78-3.67-1.78.89Z" transform="translate(-113.69 -3.52)"/><text class="cls-1" transform="translate(142.62 336.31)">Enc<tspan class="cls-9" x="11.58" y="0">r</tspan><tspan x="14.31" y="0">yption</tspan></text><line class="cls-7" x1="48.92" y1="340.71" x2="48.92" y2="352.33"/><path d="M162.6,358.63,160.83,355l1.77.89Zm0,0,1.78-3.67-1.78.89Z" transform="translate(-113.69 -3.52)"/><text class="cls-1" transform="translate(37.53 363.42)"><tspan class="cls-10">O</tspan><tspan x="5.36" y="0">utput</tspan></text><line class="cls-7" x1="159.94" y1="340.71" x2="159.94" y2="352.33"/><path d="M273.62,358.63,271.85,355l1.77.89Zm0,0L275.4,355l-1.78.89Z" transform="translate(-113.69 -3.52)"/><text class="cls-1" transform="translate(148.55 363.42)"><tspan class="cls-11">O</tspan><tspan x="5.36" y="0">utput</tspan></text><polyline class="cls-7" points="48.06 368.63 48.06 382.83 103.9 382.83 103.9 397.03"/><polyline class="cls-7" points="159.57 368.63 159.57 382.83 103.74 382.83 103.74 397.03"/><path d="M217.59,403.33l-1.78-3.67,1.78.89Zm0,0,1.77-3.67-1.77.89Z" transform="translate(-113.69 -3.52)"/><text class="cls-1" transform="translate(73.68 407.97)">128 bit <tspan class="cls-15" x="23.99" y="0">C</tspan><tspan x="28.46" y="0">ipher</tspan><tspan class="cls-3" x="45.39" y="0"> </tspan><tspan class="cls-4" x="46.71" y="0">T</tspan><tspan class="cls-15" x="50.01" y="0">e</tspan><tspan class="cls-6" x="53.87" y="0">x</tspan><tspan x="57.56" y="0">t</tspan></text><rect class="cls-7" x="69.53" y="412.36" width="68.42" height="11.62"/><line class="cls-7" x1="79.53" y1="412.04" x2="79.53" y2="423.66"/><line class="cls-7" x1="89.86" y1="412.36" x2="89.86" y2="423.98"/><line class="cls-7" x1="127.94" y1="412.36" x2="127.94" y2="423.98"/><text class="cls-1" transform="translate(103.99 418.71)">. . .</text><ellipse class="cls-16" cx="48.92" cy="46.85" rx="31.91" ry="2.14"/><ellipse class="cls-16" cx="48.92" cy="374.21" rx="31.91" ry="2.14"/><line class="cls-17" x1="17" y1="46.85" x2="17" y2="49.85"/><line class="cls-18" x1="17" y1="51.85" x2="17" y2="370.21"/><line class="cls-17" x1="17" y1="371.21" x2="17" y2="374.21"/><line class="cls-17" x1="80.83" y1="46.85" x2="80.83" y2="49.85"/><line class="cls-18" x1="80.83" y1="51.85" x2="80.83" y2="370.21"/><line class="cls-17" x1="80.83" y1="371.21" x2="80.83" y2="374.21"/><ellipse class="cls-16" cx="158.81" cy="46.85" rx="31.91" ry="2.14"/><ellipse class="cls-16" cx="158.81" cy="374.21" rx="31.91" ry="2.14"/><line class="cls-17" x1="126.89" y1="46.85" x2="126.89" y2="49.85"/><line class="cls-18" x1="126.89" y1="51.85" x2="126.89" y2="370.21"/><line class="cls-17" x1="126.89" y1="371.21" x2="126.89" y2="374.21"/><line class="cls-17" x1="190.72" y1="46.85" x2="190.72" y2="49.85"/><line class="cls-18" x1="190.72" y1="51.85" x2="190.72" y2="370.21"/><line class="cls-17" x1="190.72" y1="371.21" x2="190.72" y2="374.21"/><text class="cls-19" transform="translate(11.8 243.57) rotate(-90)">DES <tspan class="cls-20" x="26.26" y="0">P</tspan><tspan x="33.54" y="0">ipeline</tspan></text><text class="cls-19" transform="translate(196.18 158.74) rotate(90)">Bl<tspan class="cls-21" x="10.97" y="0">o</tspan><tspan x="18.61" y="0">wfish </tspan><tspan class="cls-22" x="52.75" y="0">P</tspan><tspan class="cls-23" x="60.02" y="0">ipeline</tspan></text><text class="cls-24" transform="translate(96.39 263.58)">64 bit</text><text class="cls-24" transform="translate(95.74 275.65)"><tspan class="cls-25">S</tspan><tspan class="cls-26" x="3.42" y="0">w</tspan><tspan x="8.58" y="0">ap</tspan></text><text class="cls-24" transform="translate(95.88 148.52)">64 bit</text><text class="cls-24" transform="translate(95.24 160.59)"><tspan class="cls-25">S</tspan><tspan class="cls-26" x="3.42" y="0">w</tspan><tspan x="8.58" y="0">ap</tspan></text><text class="cls-24" transform="translate(84.95 45.83)">64 bit - 64 bit<tspan x="12.73" y="8.46">Split</tspan></text><text class="cls-24" transform="translate(84.44 372.32)">64 bit - 64 bit<tspan class="cls-27" x="-2.3" y="8.46">C</tspan><tspan x="1.71" y="8.46">onc</tspan><tspan class="cls-26" x="12.65" y="8.46">a</tspan><tspan class="cls-28" x="16.02" y="8.46">t</tspan><tspan x="18.31" y="8.46">en</tspan><tspan class="cls-26" x="25.75" y="8.46">a</tspan><tspan x="29.12" y="8.46">tion</tspan></text></svg>