<svg id="Layer_1" data-name="Layer 1" xmlns="http://www.w3.org/2000/svg" viewBox="0 0 248.04 92.5"><defs><style>.cls-1,.cls-7{fill:none;stroke-miterlimit:10;}.cls-1{stroke:#000;stroke-width:0.25px;}.cls-2,.cls-3,.cls-4,.cls-5,.cls-6{isolation:isolate;}.cls-2,.cls-4,.cls-5,.cls-6,.cls-8{font-size:12px;font-family:MyriadPro-Regular, Myriad Pro;}.cls-4{letter-spacing:-0.01em;}.cls-5{letter-spacing:-0.03em;}.cls-6{letter-spacing:0.03em;}.cls-7{stroke:#666;stroke-width:0.5px;stroke-dasharray:5.91 5.91;}.cls-8{fill:#666;letter-spacing:0em;}.cls-9{letter-spacing:0em;}.cls-10{letter-spacing:0.01em;}.cls-11{letter-spacing:0em;}</style></defs><title>modules</title><path d="M108.21,28.5A5.54,5.54,0,0,1,113.75,34h0v6.42A5.54,5.54,0,0,1,108.21,46H51.79a5.54,5.54,0,0,1-5.54-5.54h0V34a5.54,5.54,0,0,1,5.54-5.54h56.42m0-.25H51.79A5.79,5.79,0,0,0,46,34h0v6.42a5.79,5.79,0,0,0,5.79,5.79h56.42A5.79,5.79,0,0,0,114,40.46h0V34a5.79,5.79,0,0,0-5.79-5.79Z" transform="translate(-46 -8.75)"/><path d="M108.21,73.5A5.54,5.54,0,0,1,113.75,79v6.42A5.54,5.54,0,0,1,108.21,91H51.79a5.54,5.54,0,0,1-5.54-5.54V79a5.54,5.54,0,0,1,5.54-5.54h56.42m0-.25H51.79A5.79,5.79,0,0,0,46,79v6.42a5.79,5.79,0,0,0,5.79,5.79h56.42A5.79,5.79,0,0,0,114,85.46V79a5.79,5.79,0,0,0-5.79-5.79Z" transform="translate(-46 -8.75)"/><path d="M196.21,50.5A5.54,5.54,0,0,1,201.75,56v6.42A5.54,5.54,0,0,1,196.21,68H139.79a5.54,5.54,0,0,1-5.54-5.54h0V56a5.54,5.54,0,0,1,5.54-5.54h56.42m0-.25H139.79A5.79,5.79,0,0,0,134,56h0v6.42a5.79,5.79,0,0,0,5.79,5.79h56.42A5.79,5.79,0,0,0,202,62.46V56A5.79,5.79,0,0,0,196.21,50.25Z" transform="translate(-46 -8.75)"/><path d="M281.21,22.5A5.54,5.54,0,0,1,286.75,28h0V46.46A5.54,5.54,0,0,1,281.21,52H224.79a5.54,5.54,0,0,1-5.54-5.54V28a5.54,5.54,0,0,1,5.54-5.54h56.42m0-.25H224.79A5.79,5.79,0,0,0,219,28V46.46a5.79,5.79,0,0,0,5.79,5.79h56.42A5.79,5.79,0,0,0,287,46.46h0V28a5.79,5.79,0,0,0-5.79-5.79Z" transform="translate(-46 -8.75)"/><path d="M281.21,72.5A5.54,5.54,0,0,1,286.75,78h0v6.42A5.54,5.54,0,0,1,281.21,90H224.79a5.54,5.54,0,0,1-5.54-5.54V78a5.54,5.54,0,0,1,5.54-5.54h56.42m0-.25H224.79A5.79,5.79,0,0,0,219,78v6.42a5.79,5.79,0,0,0,5.79,5.79h56.42A5.79,5.79,0,0,0,287,84.46h0V78a5.79,5.79,0,0,0-5.79-5.79Z" transform="translate(-46 -8.75)"/><line class="cls-1" x1="68" y1="28.5" x2="87" y2="49.4"/><polygon points="85.84 49.5 86.79 49.17 87.21 48.25 88 50.5 85.84 49.5"/><line class="cls-1" x1="68" y1="73.5" x2="87.02" y2="51.63"/><polygon points="87.26 52.76 86.82 51.86 85.86 51.55 88 50.5 87.26 52.76"/><line class="cls-1" x1="156" y1="50.5" x2="172.09" y2="29.68"/><polygon points="172.39 30.8 171.9 29.93 170.93 29.67 173 28.5 172.39 30.8"/><line class="cls-1" x1="172.11" y1="72.3" x2="156" y2="50.5"/><polygon points="172.44 71.19 171.93 72.05 170.95 72.28 173 73.5 172.44 71.19"/><text class="cls-2" transform="translate(24.56 32.68)">DES</text><g class="cls-3"><text class="cls-2" transform="translate(13.19 77.08)">Bl</text><text class="cls-4" transform="translate(22.53 77.08)">o</text><text class="cls-2" transform="translate(29.03 77.08)">wfish</text></g><g class="cls-3"><text class="cls-2" transform="translate(103.02 54.66)">B</text><text class="cls-2" transform="translate(109.52 54.66)">r</text><text class="cls-2" transform="translate(113.39 54.66)">aided</text></g><g class="cls-3"><text class="cls-5" transform="translate(198.08 24.98)">F</text><text class="cls-2" transform="translate(203.61 24.98)">ile</text><text class="cls-2" transform="translate(179.34 39.38)">Enc</text><text class="cls-6" transform="translate(197.28 39.38)">r</text><text class="cls-2" transform="translate(201.5 39.38)">yption</text></g><g class="cls-3"><text class="cls-2" transform="translate(196.92 75.45)">A</text><text class="cls-2" transform="translate(204.23 75.45)">pp</text></g><rect class="cls-7" x="164.06" y="0.25" width="83.74" height="92" rx="12" ry="12"/><text class="cls-8" transform="translate(191.46 56.92)">U<tspan class="cls-9" x="7.81" y="0">tili</tspan><tspan class="cls-10" x="20.23" y="0">t</tspan><tspan class="cls-11" x="24.31" y="0">y</tspan></text></svg>